{
	"asset":{
		"generator":"Khronos glTF Blender I/O v4.2.60",
		"version":"2.0"
	},
	"scene":0,
	"scenes":[
		{
			"name":"Scene",
			"nodes":[
				0
			]
		}
	],
	"nodes":[
		{
			"mesh":0,
			"name":"Text",
			"rotation":[
				0.7071068286895752,
				0,
				0,
				0.7071068286895752
			],
			"scale":[
				2,
				2,
				2
			],
			"translation":[
				-0.640030562877655,
				-0.5091367959976196,
				0.25845181941986084
			]
		}
	],
	"materials":[
		{
			"doubleSided":true,
			"name":"Material.001",
			"pbrMetallicRoughness":{
				"baseColorFactor":[
					0,
					0.2596849799156189,
					1,
					1
				],
				"metallicFactor":0.8545454740524292,
				"roughnessFactor":0.19090908765792847
			}
		}
	],
	"meshes":[
		{
			"name":"Text",
			"primitives":[
				{
					"attributes":{
						"POSITION":0,
						"NORMAL":1
					},
					"indices":2,
					"material":0
				}
			]
		}
	],
	"accessors":[
		{
			"bufferView":0,
			"componentType":5126,
			"count":3196,
			"max":[
				1.1099482774734497,
				0.11305471509695053,
				0.011707067489624023
			],
			"min":[
				0.01469705905765295,
				-0.02190493419766426,
				-0.4873855412006378
			],
			"type":"VEC3"
		},
		{
			"bufferView":1,
			"componentType":5126,
			"count":3196,
			"type":"VEC3"
		},
		{
			"bufferView":2,
			"componentType":5123,
			"count":19164,
			"type":"SCALAR"
		}
	],
	"bufferViews":[
		{
			"buffer":0,
			"byteLength":38352,
			"byteOffset":0,
			"target":34962
		},
		{
			"buffer":0,
			"byteLength":38352,
			"byteOffset":38352,
			"target":34962
		},
		{
			"buffer":0,
			"byteLength":38328,
			"byteOffset":76704,
			"target":34963
		}
	],
	"buffers":[
		{
			"byteLength":115032,
			"uri":"balloons2.bin"
		}
	]
}
